<svg xmlns="http://www.w3.org/2000/svg" width="256" height="256"><g fill="none" fill-rule="evenodd"><path fill="#2B42F7" d="M0 0h256v256H0z"/><g fill="#FFF" fill-rule="nonzero"><path d="M178.95 189.051c5.548 5.554 5.548 14.565 0 20.116-5.544 5.555-14.538 5.555-20.082 0l-52.724-52.803 26.84 26.878 23.46.003c5.113 0 10.069-.671 14.783-1.931l7.723 7.737Z"/><path d="m144.88 154.927 26.347 26.387a57.191 57.191 0 0 1-14.783 1.931l-23.46-.003-26.84-26.878a14.418 14.418 0 0 1-1.255-1.437h39.992Z" opacity=".6"/><path d="M156.444 154.926c15.707 0 28.445-12.68 28.445-28.317 0-15.639-12.738-28.319-28.445-28.319H99.556c-15.709 0-28.445 12.68-28.445 28.32 0 15.352 12.277 27.854 27.59 28.304l.855.012 5.333.001c.382.5.799.98 1.255 1.437l26.84 26.878 23.46.003H99.556c-31.417 0-56.89-25.36-56.89-56.636 0-31.278 25.473-56.636 56.89-56.636h56.888c31.416 0 56.89 25.358 56.89 56.636 0 26.188-17.859 48.227-42.11 54.706l.003-.001-.254.067a56.746 56.746 0 0 1-9.752 1.668 57.545 57.545 0 0 1-3.683.186l-1.094.01a58.216 58.216 0 0 0 1.91-.03l-.452.012a57.884 57.884 0 0 0 1.876-.077l-1.423.064a57.819 57.819 0 0 0 1.634-.077l-.211.013a57.59 57.59 0 0 0 1.443-.101l-1.232.088a57.535 57.535 0 0 0 1.718-.13l-.486.042a57.352 57.352 0 0 0 1.845-.183l-1.359.14a57.295 57.295 0 0 0 1.682-.179l-.323.039c.568-.066 1.133-.14 1.696-.222l-1.373.183c.48-.058.957-.122 1.433-.192l-.06.01c.483-.071.964-.148 1.444-.23l-1.384.22c.641-.094 1.279-.199 1.913-.314l-.53.094c1.701-.293 3.376-.661 5.022-1.101l-.254.067.25-.066-26.342-26.388h11.563Z"/></g></g></svg>
