<svg xmlns="http://www.w3.org/2000/svg" viewBox="0 0 24 24"><path fill-rule="nonzero" d="M1 18.39c0 .847.65 1.405 1.754 1.405h4.902C7.75 22.037 9.503 24 11.955 24c2.462 0 4.216-1.952 4.31-4.205h4.902c1.091 0 1.754-.558 1.754-1.406 0-1.161-1.185-2.207-2.184-3.24-.767-.802-.976-2.452-1.069-3.788-.081-4.577-1.266-7.527-4.356-8.643C14.917 1.197 13.674 0 11.955 0c-1.708 0-2.963 1.197-3.346 2.718-3.09 1.116-4.275 4.066-4.356 8.643-.093 1.336-.302 2.986-1.07 3.787C2.174 16.182 1 17.228 1 18.39Zm2.254-.35v-.139c.209-.337.906-1.022 1.51-1.696.836-.929 1.231-2.428 1.336-4.693.093-5.076 1.603-6.691 3.59-7.237.29-.07.452-.21.464-.511.035-1.208.732-2.056 1.8-2.056 1.08 0 1.766.848 1.813 2.056.011.302.162.441.453.51 1.998.547 3.508 2.162 3.601 7.238.104 2.265.5 3.764 1.324 4.693.616.674 1.301 1.36 1.51 1.696v.14H3.254Zm6.215 1.755h4.983c-.093 1.58-1.092 2.567-2.497 2.567-1.394 0-2.405-.987-2.486-2.567Z"/></svg>
