<svg xmlns="http://www.w3.org/2000/svg" viewBox="0 0 24 24"><g fill-rule="evenodd"><path fill-rule="nonzero" d="M11.955 0c.345 0 .672.048.976.138a7.772 7.772 0 0 0-1.42 1.624c-.815.202-1.327.97-1.357 2.002-.012.302-.174.441-.465.51-1.986.547-3.496 2.162-3.59 7.238-.104 2.265-.499 3.764-1.335 4.693-.604.674-1.301 1.36-1.51 1.696v.14h17.401v-.14c-.209-.337-.894-1.022-1.51-1.696-.515-.58-.862-1.382-1.076-2.455H18c.677 0 1.334-.087 1.96-.25.16.661.402 1.256.777 1.648.999 1.034 2.184 2.08 2.184 3.241 0 .848-.663 1.406-1.754 1.406h-4.903C16.171 22.048 14.417 24 11.954 24c-2.45 0-4.205-1.963-4.298-4.205H2.754C1.651 19.795 1 19.237 1 18.389c0-1.161 1.173-2.207 2.184-3.24.767-.802.976-2.452 1.069-3.788.081-4.577 1.266-7.527 4.356-8.643C8.992 1.197 10.247 0 11.955 0Zm2.497 19.795H9.47c.08 1.58 1.092 2.567 2.486 2.567 1.405 0 2.404-.987 2.497-2.567Z"/><path d="M18 0a6 6 0 1 1 0 12 6 6 0 0 1 0-12Zm2.312 3.117L17.998 5.43 15.69 3.117a.41.41 0 0 0-.572 0 .41.41 0 0 0 0 .572L17.43 6l-2.313 2.313a.41.41 0 0 0 0 .572.41.41 0 0 0 .572 0L18 6.571l2.313 2.313a.404.404 0 0 0 .568-.572L18.57 5.998 20.88 3.69a.404.404 0 0 0-.568-.573Z"/></g></svg>
