<?xml version="1.0" encoding="UTF-8"?>
<svg width="80px" height="16px" viewBox="0 0 80 16" version="1.1" xmlns="http://www.w3.org/2000/svg" xmlns:xlink="http://www.w3.org/1999/xlink">
    <title>Artboard</title>
    <g id="Artboard" stroke="none" stroke-width="1" fill="none" fill-rule="evenodd">
        <g id="image-(1)" transform="translate(0, 0.3232)" fill-rule="nonzero">
            <path d="M24.3396791,9.48791444 L26.2340107,9.48791444 L26.2340107,5.43572193 C26.5704813,5.17860963 27.0316578,4.93368984 27.5176471,4.93368984 C27.7794652,4.93368984 28.0038503,5.00727273 28.1657754,5.19080214 C28.315508,5.36213904 28.3775401,5.5826738 28.3775401,6.03572193 L28.3775401,9.48812834 L30.2720856,9.48812834 L30.2720856,5.72919786 C30.2720856,4.86010695 30.1101604,4.33368984 29.7362567,3.94181818 C29.3497326,3.55016043 28.7764706,3.32983957 28.1283422,3.32983957 C27.3557219,3.32983957 26.7075936,3.64812834 26.2340107,4.02759358 L26.2091979,4.01540107 L26.2091979,3.46438503 L24.3396791,3.46438503 L24.3396791,9.48791444 L24.3396791,9.48791444 Z M33.3255615,6.47614973 C33.3255615,5.61925134 33.9860963,4.93390374 34.8459893,4.93390374 C35.7058824,4.93390374 36.366631,5.61925134 36.366631,6.47614973 C36.366631,7.33326203 35.7060963,8.01882353 34.8459893,8.01882353 C33.9860963,8.01882353 33.3255615,7.33326203 33.3255615,6.47636364 L33.3255615,6.47614973 Z M31.4312299,6.47614973 C31.4312299,8.2515508 32.8894118,9.6226738 34.8459893,9.6226738 C36.8027807,9.6226738 38.2609626,8.2515508 38.2609626,6.47614973 C38.2609626,4.70117647 36.8027807,3.33005348 34.8459893,3.33005348 C32.8894118,3.33005348 31.4312299,4.70117647 31.4312299,6.47636364 L31.4312299,6.47614973 Z M40.4419251,9.0226738 C40.8284492,9.42695187 41.4141176,9.6226738 42.0372193,9.6226738 C42.573262,9.6226738 43.1341176,9.47572193 43.4207487,9.29219251 L43.4207487,7.81069519 C43.1713369,7.93326203 42.8224599,8.05561497 42.5108021,8.05561497 C41.9375401,8.05561497 41.8006417,7.61497326 41.8006417,7.02716578 L41.8006417,5.00748663 L43.4207487,5.00748663 L43.4207487,3.46481283 L41.8004278,3.46481283 L41.8004278,1.57925134 L39.9060963,1.89754011 L39.9060963,3.46459893 L38.9090909,3.46459893 L38.9090909,5.00727273 L39.9058824,5.00727273 L39.9058824,7.2231016 C39.9058824,8.17796791 40.117861,8.6797861 40.4419251,9.0226738 Z M44.4053476,1.55508021 C44.4053476,2.1426738 44.9037433,2.62032086 45.5020321,2.62032086 C46.1003209,2.62032086 46.5987166,2.1426738 46.5987166,1.55508021 C46.5987166,0.967272727 46.1003209,0.489839572 45.5020321,0.489839572 C44.9037433,0.489839572 44.4053476,0.967272727 44.4053476,1.55508021 Z M44.5548663,9.48812834 L46.4491979,9.48812834 L46.4491979,3.46459893 L44.5548663,3.46459893 L44.5548663,9.48812834 Z M48.3559358,9.48812834 L50.2504813,9.48812834 L50.2504813,5.00748663 L51.6712299,5.00748663 L51.6712299,3.46481283 L50.2504813,3.46481283 L50.2504813,2.44877005 C50.2504813,1.93454545 50.3751872,1.56727273 50.9608556,1.56727273 C51.1726203,1.56727273 51.546738,1.61625668 51.7835294,1.67743316 L51.7835294,0.171336898 C51.4468449,0.049197861 51.0855615,0 50.7364706,0 C50.1257754,0 49.4402139,0.146951872 49.0042781,0.563208556 C48.5304813,1.00385027 48.3561497,1.72620321 48.3561497,2.57090909 L48.3561497,3.46459893 L47.4836364,3.46459893 L47.4836364,5.00727273 L48.3561497,5.00727273 L48.3561497,9.48791444 L48.3559358,9.48812834 Z M52.5561497,1.55508021 C52.5561497,2.1426738 53.0545455,2.62032086 53.6528342,2.62032086 C54.251123,2.62032086 54.7497326,2.1426738 54.7497326,1.55508021 C54.7497326,0.967272727 54.2513369,0.489839572 53.6528342,0.489839572 C53.0547594,0.489839572 52.5561497,0.967272727 52.5561497,1.55508021 Z M52.7058824,9.48812834 L54.6002139,9.48812834 L54.6002139,3.46459893 L52.7056684,3.46459893 L52.7056684,9.48812834 L52.7058824,9.48812834 Z M55.7965775,6.48877005 C55.7965775,8.30053476 57.2423529,9.6228877 59.2115508,9.6228877 C59.9095187,9.6228877 60.6322995,9.47593583 61.2179679,9.15764706 L61.2179679,7.44363636 C60.7071658,7.8231016 60.0216043,8.04363636 59.4233155,8.04363636 C58.4012834,8.04363636 57.6909091,7.39465241 57.6909091,6.47657754 C57.6909091,5.57048128 58.388877,4.8973262 59.3985027,4.8973262 C59.9841711,4.8973262 60.5824599,5.11764706 61.1309091,5.46032086 L61.1309091,3.73411765 C60.6322995,3.48941176 59.9965775,3.33026738 59.3112299,3.33026738 C57.3918717,3.33026738 55.7965775,4.59122995 55.7965775,6.48877005 L55.7965775,6.48877005 Z M64.2964706,9.6228877 C64.9944385,9.6228877 65.6051337,9.40256684 66.0038503,9.12085561 L66.028877,9.12085561 C66.3653476,9.46374332 66.8513369,9.59828877 67.3499465,9.59828877 C67.7114439,9.59828877 68.0479144,9.52491979 68.2596791,9.41475936 L68.2596791,8.01903743 C68.1626398,8.06645275 68.0562343,8.09159252 67.9482353,8.09262032 C67.6864171,8.09262032 67.5743316,7.89668449 67.5743316,7.61497326 L67.5743316,5.57048128 C67.5743316,4.8115508 67.3497326,4.27294118 66.8887701,3.90566845 C66.4027807,3.51379679 65.6673797,3.33026738 64.8449198,3.33026738 C63.9473797,3.33026738 63.1997861,3.55058824 62.7011765,3.79550802 L62.7011765,5.39914439 C63.1871658,5.14203209 63.8104813,4.92171123 64.4958289,4.92171123 C64.9445989,4.92171123 65.2686631,5.01967914 65.4429947,5.17882353 C65.580107,5.30117647 65.6797861,5.52149733 65.6797861,5.81540107 L65.6797861,6.04812834 C65.3316236,5.9738266 64.9765362,5.93682638 64.6205348,5.93775401 C63.9848128,5.93775401 63.3741176,6.04812834 62.9007487,6.36641711 C62.464385,6.66010695 62.1527273,7.16213904 62.1527273,7.8231016 C62.1527273,8.44770053 62.4269519,8.92513369 62.8757219,9.23101604 C63.2744385,9.50053476 63.7730481,9.6228877 64.2964706,9.6228877 L64.2964706,9.6228877 Z M64.819893,8.25176471 C64.3835294,8.25176471 64.0348663,8.04363636 64.0348663,7.65176471 C64.0348663,7.18652406 64.5208556,7.03957219 65.0068449,7.03957219 C65.2062032,7.03957219 65.4804278,7.06417112 65.6797861,7.12534759 L65.6797861,8.00684492 C65.455615,8.14160428 65.1439572,8.25176471 64.819893,8.25176471 L64.819893,8.25176471 Z M69.2442781,9.48812834 L71.1386096,9.48812834 L71.1386096,5.8397861 C71.5873797,5.3255615 72.1358289,5.12962567 72.7963636,5.12962567 C72.9706952,5.12962567 73.157861,5.1540107 73.3073797,5.19080214 L73.3073797,3.4402139 C73.1771111,3.40652044 73.0430006,3.38998134 72.9084492,3.39097034 C72.1482353,3.39097034 71.5501604,3.6973262 71.1262032,4.28491979 L71.1013904,4.27272727 L71.1013904,3.46459893 L69.2442781,3.46459893 L69.2442781,9.48812834 Z M79.9625668,6.96620321 C79.9875936,6.80705882 80,6.53775401 80,6.32962567 C80,4.30951872 78.5792513,3.33026738 77.0712299,3.33026738 C75.3762567,3.33026738 73.855615,4.57882353 73.855615,6.50096257 C73.855615,8.38631016 75.3137968,9.6228877 77.3328342,9.6228877 C78.1428877,9.6228877 79.0654545,9.43914439 79.6635294,9.07187166 L79.6635294,7.51721925 C79.0154011,7.94566845 78.2675936,8.17818182 77.582246,8.17818182 C76.7097326,8.17818182 76.0117647,7.79871658 75.8,6.96620321 L79.9625668,6.96620321 L79.9625668,6.96620321 Z M77.0462032,4.75016043 C77.6568984,4.75016043 78.1428877,5.14203209 78.2551872,5.79101604 L75.7873797,5.79101604 C75.9495187,5.10545455 76.4605348,4.75037433 77.0462032,4.75037433 L77.0462032,4.75016043 Z" id="Shape" fill="#000000"></path>
            <path d="M12.075508,12.075508 C12.6179679,12.075508 13.1439572,12.0038503 13.6440642,11.8697326 L10.8483422,9.05668449 L14.4639572,12.6943316 C15.0528342,13.286631 15.0528342,14.2472727 14.4639572,14.8389305 C14.1821561,15.1231255 13.7985121,15.2829875 13.3982888,15.2829875 C12.9980654,15.2829875 12.6144214,15.1231255 12.3326203,14.8389305 L9.58566845,12.0752941 L12.075508,12.0752941 L12.075508,12.075508 Z" id="Path" fill="#10D1C4"></path>
            <path d="M10.8481283,9.05668449 L13.6440642,11.8695187 C13.1324944,12.0066038 12.6051265,12.0758599 12.075508,12.0755094 L9.58566845,12.0755094 L6.7368984,9.20983957 C6.68922014,9.16177774 6.64477371,9.11061433 6.60385027,9.05668449 L10.8481283,9.05668449 L10.8481283,9.05668449 Z" id="Path" fill="#000000"></path>
            <path d="M10.8481283,9.05668449 L13.6440642,11.8695187 C13.1324944,12.0066038 12.6051265,12.0758599 12.075508,12.0755094 L9.58566845,12.0755094 L6.7368984,9.20983957 C6.68922014,9.16177774 6.64477371,9.11061433 6.60385027,9.05668449 L10.8481283,9.05668449 L10.8481283,9.05668449 Z" id="Path" fill="#10D1C4" opacity="0.6"></path>
            <path d="M12.1835294,12.0744385 L12.242139,12.0731551 L12.2941176,12.0716578 L12.2419251,12.0731551 C12.277861,12.0722995 12.3137968,12.071016 12.3495187,12.0693048 L12.2941176,12.0714439 C12.3379679,12.0699465 12.3816043,12.0680214 12.4250267,12.0654545 L12.3495187,12.0693048 C12.3858824,12.0678075 12.422246,12.0658824 12.4586096,12.0635294 L12.4250267,12.0656684 C12.4678075,12.0631016 12.5105882,12.060107 12.553369,12.0568984 L12.4583957,12.0633155 C12.5326514,12.0587585 12.6068171,12.0528395 12.6808556,12.0455615 L12.5935829,12.0534759 C12.6352941,12.0500535 12.6770053,12.0459893 12.7182888,12.0417112 L12.6808556,12.0455615 C12.7191444,12.0417112 12.7572193,12.0374332 12.795508,12.0329412 L12.7185027,12.0414973 C12.7580749,12.0374332 12.7976471,12.0329412 12.8372193,12.0278075 L12.795508,12.0329412 C12.831016,12.0286631 12.8665241,12.024385 12.9020321,12.0192513 L12.8372193,12.0278075 C12.8752941,12.0231016 12.9131551,12.0179679 12.951016,12.0124064 L12.9020321,12.0192513 C13.0087919,12.0046389 13.1151404,11.9871638 13.2209626,11.9668449 L13.1602139,11.9781818 C13.1929412,11.9724064 13.2256684,11.9662032 13.2581818,11.9595722 L13.2209626,11.9668449 C13.2545455,11.9604278 13.2879144,11.9537968 13.3212834,11.946738 L13.2581818,11.9595722 C13.3020321,11.951016 13.3458824,11.9418182 13.3893048,11.9321925 L13.3212834,11.946738 C13.3537968,11.939893 13.3860963,11.9328342 13.4186096,11.9253476 L13.3893048,11.9321925 C13.4278075,11.9236364 13.4658824,11.9146524 13.5039572,11.9054545 L13.4183957,11.9255615 C13.4941176,11.9084492 13.5694118,11.8896257 13.6438503,11.8697326 L10.8481283,9.05668449 L6.60385027,9.05668449 C6.64427807,9.10994652 6.68855615,9.16106952 6.7368984,9.20983957 L9.58566845,12.075508 L6.03764706,12.075508 C2.70331551,12.075508 0,9.37197861 0,6.03764706 C0,2.70331551 2.70331551,0 6.03764706,0 L12.075508,0 C15.4096257,0 18.1131551,2.70331551 18.1131551,6.03764706 C18.1131551,8.82951872 16.2179679,11.1790374 13.6438503,11.8697326 L13.6440642,11.8697326 L13.6286631,11.8737968 L13.5657754,11.8900535 L13.6440642,11.8697326 C13.2211365,11.9833536 12.7870293,12.0502772 12.3495187,12.0693048 C12.2942148,12.0717679 12.2388799,12.0734793 12.1835294,12.0744385 Z M12.075508,3.01882353 L6.03764706,3.01882353 C4.37048128,3.01882353 3.01882353,4.37069519 3.01882353,6.03764706 C3.01882353,7.68491979 4.33860963,9.02438503 5.97839572,9.05582888 L6.03764706,9.05647059 L12.075508,9.05647059 C13.7424599,9.05647059 15.0943316,7.70459893 15.0943316,6.03764706 C15.0943316,4.37048128 13.7424599,3.01882353 12.075508,3.01882353 Z" id="Shape" fill="#000000"></path>
        </g>
    </g>
</svg>